<svg xmlns="http://www.w3.org/2000/svg" xmlns:xlink="http://www.w3.org/1999/xlink" width="200" zoomAndPan="magnify" viewBox="0 0 150 52.499999" height="70" preserveAspectRatio="xMidYMid meet" version="1.0"><defs><g/><clipPath id="af264dfe3e"><path d="M 4.71875 16 L 32.207031 16 L 32.207031 38.734375 L 4.71875 38.734375 Z M 4.71875 16 " clip-rule="nonzero"/></clipPath><clipPath id="7aa0f1db18"><path d="M 4.71875 13.472656 L 28 13.472656 L 28 35 L 4.71875 35 Z M 4.71875 13.472656 " clip-rule="nonzero"/></clipPath></defs><g clip-path="url(#af264dfe3e)"><path fill="#48baef" d="M 13.25 36.148438 C 13.546875 36.527344 13.878906 36.824219 14.28125 37.023438 C 15.003906 37.429688 15.964844 37.613281 17.183594 37.613281 C 18.417969 37.613281 19.382812 37.429688 20.101562 37.023438 C 20.808594 36.648438 21.359375 36 21.75 35.117188 C 22.027344 34.496094 22.21875 33.570312 22.335938 32.335938 C 22.363281 32.027344 22.378906 31.660156 22.402344 31.246094 C 20.746094 32.980469 18.976562 34.621094 17.195312 36.085938 L 17.023438 32.617188 Z M 29.214844 22.773438 C 29.539062 23.851562 29.6875 24.964844 29.6875 26.09375 C 29.6875 27.734375 29.378906 29.320312 28.734375 30.828125 C 28.105469 32.320312 27.183594 33.691406 25.980469 34.929688 C 24.734375 36.21875 23.394531 37.171875 21.949219 37.792969 C 20.503906 38.425781 18.914062 38.734375 17.183594 38.734375 C 15.472656 38.734375 13.894531 38.425781 12.460938 37.792969 C 12.246094 37.699219 12.035156 37.605469 11.820312 37.496094 L 11.085938 38.167969 L 4.792969 38.167969 L 18.738281 28.410156 L 18.832031 31.625 C 22.875 28.453125 26.675781 24.351562 29.644531 19.390625 C 29.363281 19.203125 28.507812 18.945312 28.039062 18.882812 C 29.417969 18.171875 30.957031 17.242188 31.867188 16.355469 C 32.199219 17.863281 32.042969 19.636719 31.652344 21.007812 C 31.398438 20.605469 31.210938 20.324219 30.863281 20.066406 C 30.367188 20.945312 29.820312 21.863281 29.214844 22.773438 Z M 29.214844 22.773438 " fill-opacity="1" fill-rule="evenodd"/></g><g clip-path="url(#7aa0f1db18)"><path fill="#05366e" d="M 11.925781 26.09375 C 11.925781 28.59375 11.953125 30.464844 12.019531 31.714844 L 8.015625 34.523438 C 7.011719 33.394531 6.238281 32.15625 5.675781 30.8125 C 5.046875 29.296875 4.726562 27.734375 4.726562 26.09375 C 4.726562 24.46875 5.046875 22.910156 5.675781 21.417969 C 6.304688 19.925781 7.214844 18.550781 8.40625 17.316406 C 9.679688 16.011719 11.042969 15.042969 12.472656 14.414062 C 13.921875 13.792969 15.484375 13.472656 17.183594 13.472656 C 18.898438 13.472656 20.476562 13.796875 21.90625 14.414062 C 23.339844 15.042969 24.707031 16.015625 25.976562 17.316406 C 26.699219 18.054688 27.328125 18.859375 27.851562 19.695312 L 27.902344 20.015625 C 26.339844 22.453125 24.515625 24.722656 22.496094 26.808594 C 22.496094 26.5625 22.496094 26.335938 22.496094 26.09375 C 22.496094 23.179688 22.441406 21.109375 22.335938 19.871094 C 22.214844 18.636719 22.027344 17.707031 21.75 17.089844 C 21.363281 16.203125 20.8125 15.558594 20.101562 15.179688 C 19.378906 14.792969 18.417969 14.589844 17.183594 14.589844 C 15.964844 14.589844 15.003906 14.792969 14.28125 15.179688 C 13.574219 15.558594 13.023438 16.203125 12.632812 17.089844 C 12.363281 17.652344 12.179688 18.527344 12.085938 19.699219 C 11.976562 20.867188 11.925781 23.003906 11.925781 26.09375 Z M 11.925781 26.09375 " fill-opacity="1" fill-rule="evenodd"/></g><g fill="#000000" fill-opacity="1"><g transform="translate(38.733444, 36.129829)"><g><path d="M 21.15625 -19.859375 L 21.15625 0 L 17.75 0 L 17.125 -2.28125 C 16.4375 -1.363281 15.550781 -0.671875 14.46875 -0.203125 C 13.394531 0.265625 12.304688 0.5 11.203125 0.5 C 9.816406 0.5 8.519531 0.226562 7.3125 -0.3125 C 6.113281 -0.851562 5.0625 -1.59375 4.15625 -2.53125 C 3.257812 -3.46875 2.550781 -4.570312 2.03125 -5.84375 C 1.507812 -7.113281 1.25 -8.46875 1.25 -9.90625 C 1.25 -11.34375 1.507812 -12.695312 2.03125 -13.96875 C 2.550781 -15.238281 3.257812 -16.34375 4.15625 -17.28125 C 5.0625 -18.226562 6.113281 -18.96875 7.3125 -19.5 C 8.519531 -20.039062 9.816406 -20.3125 11.203125 -20.3125 C 12.304688 -20.3125 13.367188 -20.097656 14.390625 -19.671875 C 15.410156 -19.242188 16.320312 -18.578125 17.125 -17.671875 L 17.75 -19.859375 Z M 11.203125 -3.0625 C 12.003906 -3.0625 12.765625 -3.238281 13.484375 -3.59375 C 14.203125 -3.957031 14.820312 -4.453125 15.34375 -5.078125 C 15.863281 -5.703125 16.273438 -6.425781 16.578125 -7.25 C 16.890625 -8.082031 17.046875 -8.96875 17.046875 -9.90625 C 17.046875 -10.851562 16.890625 -11.738281 16.578125 -12.5625 C 16.273438 -13.394531 15.863281 -14.117188 15.34375 -14.734375 C 14.820312 -15.359375 14.203125 -15.847656 13.484375 -16.203125 C 12.765625 -16.566406 12.003906 -16.75 11.203125 -16.75 C 10.398438 -16.75 9.640625 -16.566406 8.921875 -16.203125 C 8.203125 -15.847656 7.578125 -15.359375 7.046875 -14.734375 C 6.523438 -14.117188 6.109375 -13.394531 5.796875 -12.5625 C 5.492188 -11.738281 5.34375 -10.851562 5.34375 -9.90625 C 5.34375 -8.96875 5.492188 -8.082031 5.796875 -7.25 C 6.109375 -6.425781 6.523438 -5.703125 7.046875 -5.078125 C 7.578125 -4.453125 8.203125 -3.957031 8.921875 -3.59375 C 9.640625 -3.238281 10.398438 -3.0625 11.203125 -3.0625 Z M 11.203125 -3.0625 "/></g></g></g><g fill="#000000" fill-opacity="1"><g transform="translate(61.663914, 36.129829)"><g><path d="M 21.3125 -30.265625 L 21.3125 0 L 18.125 0 L 17.296875 -2.078125 C 16.492188 -1.273438 15.578125 -0.644531 14.546875 -0.1875 C 13.523438 0.269531 12.351562 0.5 11.03125 0.5 C 9.644531 0.5 8.367188 0.226562 7.203125 -0.3125 C 6.046875 -0.851562 5.039062 -1.59375 4.1875 -2.53125 C 3.332031 -3.46875 2.660156 -4.570312 2.171875 -5.84375 C 1.691406 -7.113281 1.453125 -8.46875 1.453125 -9.90625 C 1.453125 -11.34375 1.691406 -12.695312 2.171875 -13.96875 C 2.660156 -15.238281 3.332031 -16.34375 4.1875 -17.28125 C 5.039062 -18.226562 6.046875 -18.96875 7.203125 -19.5 C 8.367188 -20.039062 9.644531 -20.3125 11.03125 -20.3125 C 12.414062 -20.3125 13.617188 -20.082031 14.640625 -19.625 C 15.660156 -19.175781 16.546875 -18.535156 17.296875 -17.703125 L 17.296875 -30.265625 Z M 11.359375 -3.0625 C 12.191406 -3.0625 12.957031 -3.195312 13.65625 -3.46875 C 14.363281 -3.75 14.988281 -4.171875 15.53125 -4.734375 C 16.070312 -5.304688 16.492188 -6.019531 16.796875 -6.875 C 17.097656 -7.738281 17.25 -8.75 17.25 -9.90625 C 17.25 -11.15625 17.097656 -12.207031 16.796875 -13.0625 C 16.492188 -13.914062 16.070312 -14.613281 15.53125 -15.15625 C 14.988281 -15.695312 14.363281 -16.082031 13.65625 -16.3125 C 12.957031 -16.550781 12.191406 -16.671875 11.359375 -16.671875 C 10.554688 -16.671875 9.796875 -16.5 9.078125 -16.15625 C 8.359375 -15.8125 7.734375 -15.332031 7.203125 -14.71875 C 6.679688 -14.113281 6.269531 -13.394531 5.96875 -12.5625 C 5.664062 -11.738281 5.515625 -10.851562 5.515625 -9.90625 C 5.515625 -8.96875 5.664062 -8.082031 5.96875 -7.25 C 6.269531 -6.425781 6.679688 -5.703125 7.203125 -5.078125 C 7.734375 -4.453125 8.359375 -3.957031 9.078125 -3.59375 C 9.796875 -3.238281 10.554688 -3.0625 11.359375 -3.0625 Z M 11.359375 -3.0625 "/></g></g></g><g fill="#000000" fill-opacity="1"><g transform="translate(85.67249, 36.129829)"><g><path d="M 6.34375 0 L 2.328125 0 L 2.328125 -19.859375 L 5.515625 -19.859375 L 6.34375 -18.15625 C 6.84375 -18.738281 7.4375 -19.242188 8.125 -19.671875 C 8.820312 -20.097656 9.664062 -20.3125 10.65625 -20.3125 C 11.039062 -20.3125 11.472656 -20.265625 11.953125 -20.171875 C 12.441406 -20.078125 12.941406 -19.910156 13.453125 -19.671875 C 13.960938 -19.441406 14.453125 -19.125 14.921875 -18.71875 C 15.398438 -18.320312 15.800781 -17.804688 16.125 -17.171875 C 16.601562 -18.023438 17.316406 -18.757812 18.265625 -19.375 C 19.222656 -20 20.238281 -20.3125 21.3125 -20.3125 C 22.03125 -20.3125 22.789062 -20.203125 23.59375 -19.984375 C 24.394531 -19.765625 25.140625 -19.347656 25.828125 -18.734375 C 26.523438 -18.128906 27.09375 -17.285156 27.53125 -16.203125 C 27.976562 -15.128906 28.203125 -13.738281 28.203125 -12.03125 L 28.203125 0 L 24.421875 0 L 24.421875 -12.0625 C 24.421875 -13.78125 24.066406 -14.976562 23.359375 -15.65625 C 22.660156 -16.332031 21.726562 -16.671875 20.5625 -16.671875 C 19.675781 -16.671875 18.898438 -16.296875 18.234375 -15.546875 C 17.578125 -14.804688 17.25 -13.632812 17.25 -12.03125 L 17.25 0 L 13.484375 0 L 13.484375 -12.0625 C 13.484375 -13.78125 13.128906 -14.976562 12.421875 -15.65625 C 11.710938 -16.332031 10.78125 -16.671875 9.625 -16.671875 C 8.789062 -16.671875 8.0625 -16.351562 7.4375 -15.71875 C 6.820312 -15.082031 6.457031 -14.085938 6.34375 -12.734375 Z M 6.34375 0 "/></g></g></g><g fill="#000000" fill-opacity="1"><g transform="translate(116.274096, 36.129829)"><g><path d="M 6.515625 0 L 2.484375 0 L 2.484375 -19.859375 L 6.46875 -19.859375 Z M 4.484375 -24.171875 C 3.765625 -24.171875 3.15625 -24.425781 2.65625 -24.9375 C 2.15625 -25.445312 1.90625 -26.0625 1.90625 -26.78125 C 1.90625 -27.5 2.15625 -28.109375 2.65625 -28.609375 C 3.15625 -29.109375 3.765625 -29.359375 4.484375 -29.359375 C 5.203125 -29.359375 5.804688 -29.109375 6.296875 -28.609375 C 6.796875 -28.109375 7.046875 -27.5 7.046875 -26.78125 C 7.046875 -26.0625 6.796875 -25.445312 6.296875 -24.9375 C 5.804688 -24.425781 5.203125 -24.171875 4.484375 -24.171875 Z M 4.484375 -24.171875 "/></g></g></g><g fill="#000000" fill-opacity="1"><g transform="translate(124.981871, 36.129829)"><g><path d="M 6.265625 0 L 2.234375 0 L 2.234375 -19.859375 L 5.4375 -19.859375 L 6.265625 -18.125 C 6.921875 -18.757812 7.71875 -19.28125 8.65625 -19.6875 C 9.601562 -20.101562 10.628906 -20.3125 11.734375 -20.3125 C 12.453125 -20.3125 13.265625 -20.203125 14.171875 -19.984375 C 15.085938 -19.765625 15.941406 -19.347656 16.734375 -18.734375 C 17.523438 -18.128906 18.1875 -17.285156 18.71875 -16.203125 C 19.257812 -15.128906 19.53125 -13.738281 19.53125 -12.03125 L 19.53125 0 L 15.71875 0 L 15.71875 -12.0625 C 15.71875 -12.925781 15.582031 -13.65625 15.3125 -14.25 C 15.050781 -14.84375 14.707031 -15.316406 14.28125 -15.671875 C 13.851562 -16.035156 13.367188 -16.289062 12.828125 -16.4375 C 12.296875 -16.59375 11.738281 -16.671875 11.15625 -16.671875 C 10.707031 -16.671875 10.203125 -16.585938 9.640625 -16.421875 C 9.078125 -16.253906 8.546875 -15.984375 8.046875 -15.609375 C 7.546875 -15.234375 7.125 -14.765625 6.78125 -14.203125 C 6.4375 -13.640625 6.265625 -12.941406 6.265625 -12.109375 Z M 6.265625 0 "/></g></g></g></svg>